<?xml version="1.0" standalone="no"?>
<!DOCTYPE svg PUBLIC "-//W3C//DTD SVG 20010904//EN"
 "http://www.w3.org/TR/2001/REC-SVG-20010904/DTD/svg10.dtd">
<svg version="1.0" xmlns="http://www.w3.org/2000/svg"
 width="700.000000pt" height="700.000000pt" viewBox="0 0 700.000000 700.000000"
 preserveAspectRatio="xMidYMid meet">
<metadata>
Created by potrace 1.11, written by Peter Selinger 2001-2013
</metadata>
<g transform="translate(0.000000,700.000000) scale(0.100000,-0.100000)"
fill="#000000" stroke="none">
<path d="M3836 5923 c-1 -1 -30 -4 -64 -7 -76 -7 -280 -54 -288 -67 -3 -5 -12
-9 -20 -9 -26 0 -147 -63 -393 -205 -135 -78 -325 -186 -421 -241 -209 -118
-286 -186 -345 -303 -50 -101 -67 -187 -68 -358 0 -79 -4 -143 -7 -143 -15 0
-339 -220 -431 -292 -120 -94 -142 -113 -250 -218 -238 -232 -389 -450 -519
-750 -29 -69 -59 -131 -65 -138 -10 -11 -27 -5 -91 33 -60 36 -88 47 -120 47
-57 0 -111 -28 -139 -71 -13 -20 -112 -238 -220 -486 -108 -247 -202 -464
-210 -481 -70 -151 -148 -348 -160 -403 -35 -162 7 -376 99 -505 36 -52 49
-63 119 -102 38 -22 76 -44 85 -49 142 -85 175 -98 241 -98 157 1 309 84 403
221 16 24 45 76 63 115 66 144 85 188 85 193 0 3 8 24 19 47 49 109 62 139
106 242 26 61 53 124 60 140 91 202 249 580 257 617 14 60 -2 138 -38 185 -13
18 -68 58 -122 90 -53 31 -101 60 -105 64 -9 7 20 80 94 238 123 263 316 491
619 732 44 35 218 159 223 159 2 0 4 -15 5 -33 1 -18 5 -44 7 -57 3 -14 8 -38
10 -53 24 -130 139 -288 257 -352 86 -47 126 -53 338 -55 214 -1 251 6 291 52
50 58 54 75 59 258 l5 174 231 1 c211 1 233 3 264 21 57 33 90 90 101 173 10
80 33 122 76 140 20 7 285 12 903 13 874 3 875 3 940 25 153 53 287 164 372
309 35 60 88 184 88 207 0 9 75 12 332 12 320 -1 335 0 373 20 58 31 96 97
100 175 4 66 -5 96 -43 148 -49 68 -40 66 -420 72 l-343 5 -32 85 c-95 251
-286 420 -517 456 -38 6 -1788 13 -1794 7z m1822 -447 c92 -51 170 -166 158
-231 -16 -83 -123 -192 -206 -211 -19 -5 -422 -9 -895 -9 -962 -1 -915 2
-1031 -73 -74 -48 -136 -118 -183 -208 l-36 -67 -250 -1 c-265 -2 -284 -5
-326 -52 -46 -53 -53 -84 -56 -239 -1 -82 -2 -159 -2 -171 -1 -19 -7 -21 -69
-22 -77 -1 -118 17 -149 65 -16 24 -18 56 -21 298 -3 318 0 332 76 382 27 17
66 41 88 53 21 11 46 25 54 30 37 23 203 120 205 120 1 0 114 64 251 143 269
154 321 178 459 207 85 17 142 18 985 17 l895 -2 53 -29z m-4753 -2731 c40
-43 73 -62 116 -69 37 -6 129 -52 129 -65 0 -9 -422 -976 -446 -1024 -36 -68
-98 -102 -140 -76 -13 8 -57 34 -97 57 -130 77 -127 118 43 497 10 22 73 166
140 319 66 154 130 299 141 323 11 23 24 54 29 68 9 23 12 24 32 14 13 -6 37
-26 53 -44z"/>
</g>
</svg>
